<svg xmlns="http://www.w3.org/2000/svg" viewBox="0 0 840 220" width="840" height="220">
  <defs>
    <!-- Main gradient -->
    <linearGradient id="gMain" x1="0%" y1="0%" x2="100%" y2="0%">
      <stop offset="0%" stop-color="#4A90E2"/>
      <stop offset="50%" stop-color="#7B68EE"/>
      <stop offset="100%" stop-color="#9B59B6"/>
    </linearGradient>

    <!-- Subtle background gradient -->
    <linearGradient id="gBg" x1="0%" y1="0%" x2="100%" y2="100%">
      <stop offset="0%" stop-color="#0d1117"/>
      <stop offset="100%" stop-color="#161b22"/>
    </linearGradient>

    <!-- Glow filter -->
    <filter id="glow" x="-20%" y="-20%" width="140%" height="140%">
      <feGaussianBlur in="SourceGraphic" stdDeviation="3" result="blur"/>
      <feMerge>
        <feMergeNode in="blur"/>
        <feMergeNode in="SourceGraphic"/>
      </feMerge>
    </filter>

    <!-- Soft shadow for text -->
    <filter id="textShadow" x="-5%" y="-5%" width="110%" height="110%">
      <feDropShadow dx="0" dy="1" stdDeviation="2" flood-color="#7B68EE" flood-opacity="0.3"/>
    </filter>

    <!-- Helix strand pattern -->
    <clipPath id="bannerClip">
      <rect x="0" y="0" width="840" height="220" rx="16"/>
    </clipPath>
  </defs>

  <!-- Background -->
  <rect width="840" height="220" rx="16" fill="url(#gBg)"/>

  <!-- Decorative grid dots -->
  <g opacity="0.06" clip-path="url(#bannerClip)">
    <pattern id="dots" x="0" y="0" width="24" height="24" patternUnits="userSpaceOnUse">
      <circle cx="2" cy="2" r="1" fill="#ffffff"/>
    </pattern>
    <rect width="840" height="220" fill="url(#dots)"/>
  </g>

  <!-- Decorative helix strands (left side, subtle) -->
  <g opacity="0.12" clip-path="url(#bannerClip)">
    <path d="M -20,180 Q 60,140 40,100 Q 20,60 80,20 Q 140,-20 120,40 Q 100,100 160,140 Q 220,180 200,120 Q 180,60 240,20"
          stroke="url(#gMain)" stroke-width="1.5" fill="none"/>
    <path d="M -10,200 Q 70,160 50,120 Q 30,80 90,40 Q 150,0 130,60 Q 110,120 170,160 Q 230,200 210,140 Q 190,80 250,40"
          stroke="url(#gMain)" stroke-width="1" fill="none"/>
    <!-- Cross rungs -->
    <line x1="10" y1="168" x2="40" y2="182" stroke="#7B68EE" stroke-width="0.7" opacity="0.5"/>
    <line x1="50" y1="128" x2="68" y2="138" stroke="#7B68EE" stroke-width="0.7" opacity="0.5"/>
    <line x1="40" y1="88" x2="72" y2="98" stroke="#7B68EE" stroke-width="0.7" opacity="0.5"/>
    <line x1="80" y1="48" x2="108" y2="58" stroke="#7B68EE" stroke-width="0.7" opacity="0.5"/>
  </g>

  <!-- Decorative helix strands (right side, subtle) -->
  <g opacity="0.08" clip-path="url(#bannerClip)">
    <path d="M 680,200 Q 720,160 710,120 Q 700,80 740,40 Q 780,0 770,60 Q 760,120 800,160 Q 840,200 830,140 Q 820,80 860,20"
          stroke="url(#gMain)" stroke-width="1.5" fill="none"/>
    <path d="M 700,210 Q 740,170 730,130 Q 720,90 760,50 Q 800,10 790,70 Q 780,130 820,170 Q 860,210 850,150 Q 840,90 880,30"
          stroke="url(#gMain)" stroke-width="1" fill="none"/>
  </g>

  <!-- Accent line at top -->
  <rect x="0" y="0" width="840" height="3" rx="1.5" fill="url(#gMain)" opacity="0.7" clip-path="url(#bannerClip)"/>

  <!-- Helix icon -->
  <g transform="translate(230, 42)" filter="url(#glow)">
    <g stroke="url(#gMain)" stroke-width="4.5" fill="none" stroke-linecap="round">
      <path d="M 15,5 Q 10,15 14,28 Q 18,42 10,52" opacity="0.9"/>
      <path d="M 50,5 Q 55,15 51,28 Q 47,42 55,52" opacity="0.9"/>
      <!-- Cross lines (DNA rungs) -->
      <line x1="17" y1="10" x2="48" y2="10" opacity="0.5"/>
      <line x1="20" y1="21" x2="45" y2="21" opacity="0.5"/>
      <line x1="17" y1="32" x2="48" y2="32" opacity="0.5"/>
      <line x1="20" y1="43" x2="45" y2="43" opacity="0.5"/>
    </g>
  </g>

  <!-- "HELIX" text -->
  <text x="305" y="90"
        font-family="'Segoe UI', 'Roboto', 'Helvetica Neue', 'Arial', sans-serif"
        font-size="56"
        font-weight="200"
        letter-spacing="14"
        fill="#ffffff"
        filter="url(#textShadow)">HELIX</text>

  <!-- "OS" small badge -->
  <g transform="translate(572, 60)">
    <rect width="42" height="24" rx="5" fill="url(#gMain)" opacity="0.25"/>
    <rect width="42" height="24" rx="5" fill="none" stroke="url(#gMain)" stroke-width="1" opacity="0.6"/>
    <text x="21" y="17"
          font-family="'Segoe UI', 'Roboto', 'Arial', sans-serif"
          font-size="14"
          font-weight="600"
          letter-spacing="3"
          fill="#c8d6e5"
          text-anchor="middle">OS</text>
  </g>

  <!-- Tagline -->
  <text x="420" y="132"
        font-family="'Segoe UI', 'Roboto', 'Helvetica Neue', 'Arial', sans-serif"
        font-size="15"
        font-weight="300"
        letter-spacing="4"
        fill="#8b949e"
        text-anchor="middle">SYSTEMS  BUILT  TO  EVOLVE</text>

  <!-- Bottom tags -->
  <g transform="translate(0, 164)">
    <!-- Rust tag -->
    <g transform="translate(260, 0)">
      <rect width="70" height="26" rx="13" fill="#ffffff" opacity="0.06"/>
      <text x="35" y="17"
            font-family="'Segoe UI', 'Roboto', 'Arial', sans-serif"
            font-size="11"
            font-weight="400"
            fill="#8b949e"
            text-anchor="middle">🦀 Rust</text>
    </g>

    <!-- Bare Metal tag -->
    <g transform="translate(342, 0)">
      <rect width="96" height="26" rx="13" fill="#ffffff" opacity="0.06"/>
      <text x="48" y="17"
            font-family="'Segoe UI', 'Roboto', 'Arial', sans-serif"
            font-size="11"
            font-weight="400"
            fill="#8b949e"
            text-anchor="middle">⚙️ Bare Metal</text>
    </g>

    <!-- no_std tag -->
    <g transform="translate(450, 0)">
      <rect width="76" height="26" rx="13" fill="#ffffff" opacity="0.06"/>
      <text x="38" y="17"
            font-family="'Segoe UI', 'Roboto', 'Arial', sans-serif"
            font-size="11"
            font-weight="400"
            fill="#8b949e"
            text-anchor="middle">📦 no_std</text>
    </g>

    <!-- MIT tag -->
    <g transform="translate(538, 0)">
      <rect width="64" height="26" rx="13" fill="#ffffff" opacity="0.06"/>
      <text x="32" y="17"
            font-family="'Segoe UI', 'Roboto', 'Arial', sans-serif"
            font-size="11"
            font-weight="400"
            fill="#8b949e"
            text-anchor="middle">⚖️ MIT</text>
    </g>
  </g>

  <!-- Subtle border -->
  <rect width="840" height="220" rx="16" fill="none" stroke="#30363d" stroke-width="1"/>
</svg>
